<?xml version="1.0" encoding="utf-8"?>
<!-- Generator: Adobe Illustrator 25.2.1, SVG Export Plug-In . SVG Version: 6.00 Build 0)  -->
<svg version="1.1" id="Layer_1" xmlns="http://www.w3.org/2000/svg" xmlns:xlink="http://www.w3.org/1999/xlink" x="0px" y="0px"
	 viewBox="0 0 841.89 595.28" style="enable-background:new 0 0 841.89 595.28;" xml:space="preserve">
<style type="text/css">
	.st0{fill:#2E2A2F;}
	.st1{fill:#D6CDCF;}
</style>
<g>
	<path class="st0" d="M223.25,128.84c4.95-4.32,9.94-8.6,14.85-12.97c10.74-9.56,22.76-17.2,35.55-23.62
		c11.21-5.63,23.18-7.49,35.7-7.32c31.21,0.43,59.42,11.37,87.12,24.27c17.84,8.3,32.42,20.46,43.44,36.81
		c2.77,4.1,4.61,8.75,7.81,12.63c1.6,1.93,2.3,4.51,2.71,7.19c0.64,4.16,2.69,7.82,4.83,11.51c4.72,8.14,9.27,16.43,12.23,25.4
		c6.77,20.55,10.01,41.93,14.28,63.06c1.18,5.83,2.78,11.54,4.32,17.28c1.44,5.36,1.76,10.74-1.13,16.21
		c-2.81,5.32-4.69,11.2-6.49,16.99c-1.89,6.09-4.87,11.64-7.49,17.38c-4.35,9.56-9.77,18.71-12.11,29.07
		c-1.5,6.64-2.81,13.37-3.51,20.13c-1.86,17.88-8.3,34.06-17.25,49.43c-8.92,15.32-19.32,29.41-33.11,40.77
		c-0.87,0.72-1.66,1.31-1.53,2.7c1.25,13.78-1.06,27.57,0.17,41.36c0.11,1.26-0.6,2.59-0.86,3.9c-0.21,1.02,0.2,2.33-1.71,2.14
		c-1.57-0.16-1.47-1.17-1.76-2.28c-1.76-6.69-0.86-13.47-0.81-20.22c0.05-6.33,0.43-12.65,0.62-18.97c0.03-0.93,0.49-2.11-0.62-2.69
		c-1.12-0.59-1.78,0.56-2.54,1.08c-9.7,6.67-18.97,13.93-29.35,19.66c-10.67,5.89-21.48,9.92-33.93,8.32
		c-6.76-0.87-13.62-0.08-20.43-0.79c-6.83-0.71-13.48-1.92-19.73-4.9c-8.05-3.84-16.55-7.08-23.56-12.57
		c-5.4-4.23-10.84-8.57-15.75-13.46c-0.68-0.68-1.3-1.78-2.39-1.43c-1.42,0.46-1.02,1.91-0.87,2.88c2.16,13.83-1.13,27.39-1.9,41.08
		c-0.11,1.97-1.19,3.13-2.32,4.2c-1.71,1.63-1.85,1.48-0.74,3.66c-1.41-0.01-3.09,0.12-2.63-2.02c3.26-15.07-1.3-30.12-0.02-45.17
		c0.32-3.69-0.19-7.45,0.9-11.08c0.45-1.47-0.12-2.61-1.31-3.57c-5.32-4.31-9.07-10.07-13.66-15.05
		c-9.35-10.14-15.56-22.46-23.15-33.83c-0.28-0.41-0.45-0.91-0.79-1.26c-6.74-6.91-6.93-9.06-3.6-16.32
		c0.41-0.88,0.26-1.54,0.08-2.43c-2.32-11.16-4.61-22.32-6.78-33.51c-0.39-1.99-1.33-3.17-3.21-3.54
		c-11.98-2.36-18.88-10.2-24.77-20.46c-5.2-9.06-5.21-18.43-5.45-28.04c-0.29-11.8,0.84-23.54,1.74-35.31
		c0.81-10.59,1.92-21.22,1.96-31.79c0.02-5,2.72-10.19-0.04-15.38c-0.5-0.95,0.54-3.5,0.94-5.28c3.54-16.07,8.81-31.49,16.5-46.14
		c3.76-7.16,7.39-14.23,13.26-19.9C204.4,147.37,213.82,138.1,223.25,128.84z M186.36,177.33c-1.49-0.05-1.68,1.27-2.22,2.17
		c-5.37,8.83-8.84,18.41-11.49,28.36c-3.21,12.06-4.02,24.42-4.79,36.77c-0.89,14.37-0.48,28.72,2.49,42.9
		c1.4,9.13,3.49,18.07,7.1,26.73c0.61-1.54,0.87-3.07,0.84-4.58c-0.18-8.2,1.14-16.25,2.08-24.36c2.49-21.53,9.15-41.84,17.1-61.82
		c6.51-16.35,15.82-31.05,25.88-45.43c15.83-22.62,36.3-37.52,64.06-41.77c23.79-3.64,47.46-7.56,71.72-3.97
		c16.28,2.41,30.51,8.05,41.45,20.8c5.97,6.96,12.11,13.79,18.66,20.23c5.43,5.75,9.74,12.5,15.72,17.77
		c4.69,6.12,8.1,13.06,11.71,19.77c3.1,5.76,7.11,11.15,9.13,17.42c5.42,16.87,10.97,33.72,15.1,50.96
		c2.31,9.66,6.2,19.15,4.7,29.46c-0.09,0.63,0.37,1.34,0.67,2.34c0.47-0.83,0.8-1.34,1.06-1.89c0.53-1.12,1.03-2.26,1.53-3.39
		c4.41-9.92,6.44-19.97,2.27-30.59c-1.12-2.85-1.46-6.01-2.08-9.05c-3.1-15.3-5.75-30.72-9.41-45.88
		c-2.66-11.02-5.37-22.21-11.89-31.88c-0.06-0.36-0.08-0.73-0.18-1.08c-1.26-4.53-5.08-7-7.85-10.38
		c-7.44-9.07-16.6-16.45-23.99-25.51c-0.37-0.45-0.98-0.7-1.47-1.05c-8.5-9.23-17.96-17.31-30.32-20.5
		c-9.79-2.52-19.48-5.61-29.64-6.67c-4.9-0.51-9.85-1.12-14.3-3.58c0.21-2.34,1.64-1.99,3.2-1.49c3.19,1.02,6.46,1.64,9.79,2.08
		c14.26,1.91,28.06,5.89,41.87,9.74c3.55,0.99,7.25,2.3,9.84,5.01c4.5,4.7,9.94,8,15.3,11.46c0.81,0.52,1.94,0.82,1.91,2.04
		c-0.04,1.72-1.86,0.83-2.89,1.38c6.18,6.63,12.08,12.96,17.97,19.29c0.24,0.16,0.48,0.32,0.72,0.48c0.25-0.38,0.1-0.65-0.23-0.88
		c-0.1-0.48-0.14-0.98-0.3-1.45c-7.82-23.14-23.32-40.05-44.23-51.65c-19.48-10.8-40.32-18.78-62-24.16
		c-10.01-2.49-20.29-3.48-30.61-3.82c-10.76-0.35-21.4,0.62-31.3,5.13c-11.99,5.46-23.27,12.15-33.59,20.46
		c-17.44,14.05-32.94,30.13-48.71,45.94c-0.71,0.71-1.38,1.43-1.49,2.49c-0.21,0.23-0.41,0.46-0.62,0.7
		c0.16,0.1,0.43,0.32,0.46,0.29c0.32-0.31,0.72-0.66,0.06-1.04c0.32,0.66,0.75,0.41,1.13,0.1c11.58-9.47,25.02-16.31,36.54-25.87
		c1.53-1.27,3.34-3.52,5.42-2.06c2.33,1.64-0.25,3.76-0.49,5.69c-1.57,1.44-1.3,4.65-4.42,4.62c-1.22-2.02,1.24-3.53,0.89-5.87
		c-4.06,3.22-7.59,6.57-11.64,9.12c-8.84,5.57-16.7,12.39-24.92,18.74c-1.21,0.93-1.95,2.2-2.79,3.43
		c-5.95,8.73-8.46,18.59-9.63,28.91c-0.4,3.57-0.77,7.15-1.2,10.72c-0.11,0.92,0.05,2.25-1.35,2.24c-1.48,0-1.18-1.29-1.18-2.23
		c0-0.74,0.12-1.48,0.17-2.22c0.6-9.92,2.07-19.69,5.24-29.15c0.05-0.29,0.09-0.58,0.14-0.88
		C186.79,177.08,186.58,177.2,186.36,177.33z M337.01,500.28c3.04,0.12,6.09,0.15,9.13,0.39c2.61,0.21,5.43-0.67,7.73,1.34
		c3.05-0.06,5.61-1.6,8.08-3.03c7.6-4.41,15.18-8.83,22.4-13.93c7.09-5.01,13.6-10.66,20.2-16.21c8.4-7.05,15.25-15.57,21.62-24.47
		c0.64-0.89,1.34-1.81,1.7-2.83c1.29-3.69,3.28-6.93,5.84-9.84c7.33-10.13,12.75-21.24,16.24-33.21c0.91-3.12,3.64-6.78-0.35-9.97
		c-0.27-0.21-0.05-1.21,0.13-1.78c1.02-3.31,2.26-6.57,3.12-9.92c0.91-3.53,2.08-7.16,2.04-10.74c-0.06-6.17,0.28-12.29,0.72-18.43
		c0.93-12.86,2.65-25.7,1.75-38.63c-0.85-12.11-2.02-24.2-2.96-36.31c-1.83-23.6-3.26-47.11-16.61-68.13
		c-6.68-10.52-13.89-20.41-22.39-29.44c-6.15-7.48-12.9-14.42-19.76-21.23c-3.22-3.2-6.29-6.99-11.32-7.95
		c-17.59-3.35-35.16-5.69-53.19-3.4c-13.22,1.68-26.79,1.05-39.33,6.67c-10.51,2.28-20.65,5.73-29.3,12.18
		c-19.55,14.58-38.62,29.74-52.68,50.16c-3.13,4.55-6.36,8.98-7.89,14.38c-1.64,5.77-3.62,11.47-4.86,17.33
		c-1.53,7.25-4.35,14.16-5.72,21.38c-3.7,19.48-3.07,38.94,0.94,58.39c1.87,9.06,4.9,17.93,5.02,27.31
		c0.05,3.83-1.43,7.47-0.48,11.5c3.1,13.1,5.82,26.29,8.63,39.46c0.37,1.74,0.8,3.82,2.07,4.66c3.63,2.4,4.6,6.3,6.33,9.76
		c3.25,6.54,6.2,13.24,10.84,18.98c0.36,0.51,0.71,1.02,1.07,1.53c0.21,0.27,0.42,0.55,0.63,0.82c6.42,11.24,16.4,19.67,23.75,30.29
		c4.53,6.55,12.22,11.06,18.92,15.9c6.53,4.71,14.17,7.56,21.46,10.9c8,3.67,15.93,6.81,25.39,5.34
		C322.74,498.46,329.96,499.94,337.01,500.28z M165.24,276.01c-1.39,10.68-1.82,20.56-1.95,30.46c-0.17,12.62,0.45,24.76,8.21,35.88
		c4.65,6.67,9.99,11.12,17.63,13.06c1.06,0.27,2.4,1.65,3.3,0.32c0.68-0.99-0.1-2.4-0.58-3.54c-0.19-0.45-0.5-0.86-0.76-1.28
		c-11.25-17.57-18.38-36.77-22.58-57.12C167.36,288.15,166.43,282.46,165.24,276.01z"/>
	<path class="st1" d="M195.11,161.65c0.66,0.38,0.26,0.73-0.06,1.04c-0.03,0.03-0.3-0.19-0.46-0.29c0.21-0.23,0.41-0.46,0.62-0.7
		C195.2,161.7,195.11,161.65,195.11,161.65z"/>
	<path class="st1" d="M186.36,177.33c0.22-0.12,0.44-0.25,0.66-0.37c-0.05,0.29-0.09,0.58-0.13,0.88
		C186.68,177.69,186.51,177.52,186.36,177.33z"/>
	<path class="st1" d="M447.44,168.76c0.33,0.23,0.48,0.5,0.23,0.88c-0.24-0.16-0.48-0.32-0.72-0.48
		C447.12,169.02,447.28,168.89,447.44,168.76z"/>
	<path class="st0" d="M247.71,241.57c-4.73,1.42-9.45,2.9-14.21,4.24c-1.51,0.43-3.34,1.02-4.4-0.74c-1.17-1.96,0.44-3.23,1.58-4.49
		c3.6-3.96,8.19-6.34,13.07-8.32c7.68-3.12,15.43-6.01,23.35-8.45c1.25-0.26,2.49-0.51,3.74-0.77c0.61,0.02,1.22,0.08,1.83,0.05
		c14.22-0.77,27.48,2.64,39.92,9.38c4.86,2.63,5.12,3.55,3.31,7.96l-0.04,0.04c-3.48,0.24-6.93-0.15-10.33-0.78
		c-12.76-2.37-25.53-4.88-38.56-2.62c-6.14,1.06-12.64,0.68-18.25,4.12C248.38,241.31,248.04,241.44,247.71,241.57z"/>
	<path class="st0" d="M258.88,384.38c0.53-1.49,2.11-2.5,1.99-4.29c0.74-0.44,1.49-0.87,2.41-0.53c-0.1,1.49-0.21,2.98-0.31,4.47
		c-2.05,5.72-0.95,7.7,4.68,7.74c3.67,0.02,7.28-0.69,10.58-2.49c9.6-3.64,19.67-5.07,29.78-5.95c7.94-0.69,15.78,1.12,23.6,2.39
		c1.09,0.18,2.11,0.64,3.24,0.04c12.41-6.57,24.02-3.2,35.35,2.94c7.42,4.02,14.95,7.58,23.54,8.35c1.91,0.17,3.08,0.12,3.22-2.14
		c0.14-2.35,0.46-4.68,0.71-7.02c0.09-0.79,0.36-1.48,1.28-1.56c0.75-0.07,1.24,0.4,1.17,1.09c-0.48,4.73,2.18,9.54-0.36,14.22
		c-0.8,1.47-0.53,3.62-3.51,1.14c-2.63-2.19-6.88-2.6-10.66-2.53c-8.71,0.15-17.79,0.24-25.7-2.84c-7.16-2.78-13.45-1.51-20.18-0.62
		c-4.06,0.54-7.85-0.9-11.77-1.33c-4.16-0.46-8.35-1.17-12.35,0.83c-0.45-0.14-0.89-0.33-1.35-0.41c-1.24-0.22-3.04,0.09-2.84-1.87
		c0.16-1.6,1.78-1.23,2.94-1.33c0.35-0.03,0.69-0.16,1.03-0.24c4.92,0.55,9.96-0.06,14.81,1.12c4.55,1.11,9.01,1.15,13.61,0.35
		c5.34-0.92,10.56-1.28,16.13-0.03c5.69,1.28,11.61,3.18,18.47,1.53c-3.74-1.91-6.87-3.52-10.01-5.12
		c-10.25-5.23-20.69-8.56-31.87-2.76c-1.67,0.87-3.18,0.94-4.95,0.55c-5.69-1.26-11.47-1.85-17.27-2.22
		c-0.47-0.13-0.94-0.38-1.41-0.38c-13.28-0.04-26,2.78-38.31,7.65c-0.61,0.24-1.16,0.54-1.23,1.23c-0.27,2.77-2.57,2.18-4.14,2.24
		c-2.24,0.09-4.35-0.81-6.3-1.94c-2.33-1.35-3.23-0.67-2.86,1.93c-3.08,1.29-1.64-1.44-2.16-2.43c0.5-0.49,0.56-1.03,0.15-1.61
		c-0.05-0.74-0.09-1.47-0.14-2.21C259.26,388.52,258.96,386.43,258.88,384.38z"/>
	<path class="st0" d="M428.17,237.72c3.82,2.65,7.66,5.29,11.47,7.96c0.71,0.5,1.33,1.12,1.94,1.74c0.96,0.97,2.29,2.12,1.63,3.47
		c-0.79,1.63-2.37,0.21-3.6,0.19c-0.6-0.01-1.2-0.26-1.8-0.4c-3.23-1.12-6.46-2.25-9.7-3.37c-0.32-0.62-0.83-0.8-1.49-0.65
		c-0.48-0.1-0.95-0.21-1.43-0.31c-0.57-0.76-1.33-0.94-2.22-0.75c-0.48-0.1-0.95-0.2-1.43-0.31c-0.58-0.76-1.37-0.86-2.24-0.69
		c-0.72-0.13-1.44-0.27-2.16-0.4c-3.62-1.45-7.38-1.11-11.13-0.9c-1.48-0.07-2.96-0.15-4.43-0.22c-2.75-0.42-5.49-0.8-8.24-0.04
		c-6.92,0.25-13.83,0.56-20.58,2.32c-3.34,0.87-6.69-0.52-7.45-2.97c-0.89-2.85,0.88-5.91,4.32-7.12c8.42-2.96,17.01-4.3,25.89-2.5
		c2.96,0.6,5.93,0.3,8.88-0.09C412.93,231.53,420.71,233.86,428.17,237.72z"/>
	<path class="st1" d="M340.85,420.27c3.48-0.03,6.47,0.88,8.88,3.67c1.93,2.23,1.98,4.51,0.86,6.86
		c-4.51,9.44-16.56,13.94-24.97,7.84c-4.88-3.54-10.97-6.07-14.36-11.8c-2.1-3.56-1.51-6.33,0.97-9.05
		c2.18-2.39,4.49-4.48,8.28-3.23c1.96,0.64,4.17,0.47,6.22,0.89c2.1,0.42,4.59,0.43,5.14,3.32c-2.73,0.04-4.91,1.94-7.59,2.2
		c-0.76,0.07-1.49,0.41-1.32,1.39c0.16,0.95,1.13,0.77,1.74,1.09c0.42,3.68,2.4,5.74,5.45,5.68c4.59-0.08,8.5-3.1,8.9-6.86
		C339.65,421.61,340.25,420.94,340.85,420.27z"/>
	<path class="st0" d="M433.16,285.44c4.66,2.79,10.22,4.13,14.45,9.02c-3-0.35-5.15-0.94-7.24-2.15c-1.85-1.07-3.69-2.6-6.13-1.73
		c-0.71-0.17-1.42-0.33-2.14-0.5c-0.64-0.78-1.45-0.72-2.3-0.48c-0.88-0.5-1.82-0.77-2.84-0.67c-0.27-0.77-0.84-0.8-1.51-0.61
		c-9.03-1.14-17.57-4.78-26.88-4.76c-7.2,0.01-14.2,0.56-21.41,2.92c1.98-4.37,6.02-5.54,9.45-7.47c1.1,0.22,1.98-0.04,2.45-1.16
		c0,0-0.02,0.02-0.02,0.02c0.65,0.17,1.16-0.03,1.49-0.62c0.98,0.01,1.96,0.02,2.94,0.03c2.81,0.48,5.58,0.25,8.34-0.38
		c3.43,0.26,6.86,0.52,10.28,0.78c1.58,1.01,3.36,1.35,5.17,1.58c0.46,0.16,0.92,0.32,1.38,0.48c0.58,0.77,1.37,0.85,2.24,0.66
		c0.53,0.26,1.06,0.52,1.59,0.78c1.83,1.6,3.97,2.49,6.37,2.74C430.3,284.43,431.73,284.94,433.16,285.44z"/>
	<path class="st1" d="M303.84,346.1c-6.28-0.75-3.35-5.42-0.23-10.63c2.68-4.47,0.45-3.67,3.64-7.73c2.37-3,10.71-32.73,6.81-2.29
		c0.64,1.33,1.11,2.75,1.69,4.12c0.96,2.23,2.37,4.31,4.67,5.02c3.25,1,3.55,3.16,2.81,5.75c-0.65,2.28-1.11,4.54-1.25,6.89
		c-0.06,1.09-0.41,1.96-1.78,1.79C317.49,345.14,309.56,343.72,303.84,346.1z"/>
	<path class="st0" d="M419.13,431.18c-0.6,0.68-1.2,1.36-1.8,2.03c-2.61-0.1-3.72-1.35-3.31-4.02c0.29-1.94,0.36-3.91,0.52-5.87
		c6.45-10.69,12.41-21.55,13.43-34.37c0.28-3.49-0.23-6.94-0.31-10.41c-0.04-1.46-0.54-3.28,1.64-3.49c2.16-0.21,2.07,1.66,2.31,3.1
		c0.06,0.36,0.14,0.73,0.2,1.09c0.28,7.83,2.17,15.57,0.07,23.51c-2.16,8.2-4.54,16.11-10.78,22.3
		C419.45,426.68,418.68,428.79,419.13,431.18z"/>
	<path class="st0" d="M300.4,273.96c0.61,0.6,1.22,1.21,1.83,1.81c-0.8,1.05,1.26,3.47-1.66,3.51c-0.36-0.27-0.73-0.53-1.09-0.8
		c-0.18-0.71-0.73-1.12-1.36-0.92c-3.33,1.06-6.85,0.53-10.21,1.3c-0.74-0.1-1.48-0.2-2.22-0.3c-0.6-0.73-1.36-0.83-2.21-0.54
		c-8.41-1.25-16.83-1.29-25.24-0.02c-1.96-0.31-3.94-0.51-5.86-0.96c-1.15-0.27-2.85-0.52-2.85-1.95c0-1.73,1.87-1.83,3.11-2
		c6.75-0.97,13.51-1.99,20.3-2.59c4.04-0.36,8.25-1.06,12.19,0.22c4.08,1.33,8.22,1.66,12.42,1.94c0.47,0.16,0.94,0.32,1.41,0.48
		C299.26,273.72,299.72,274.04,300.4,273.96z"/>
	<path class="st0" d="M306.77,407.79c-0.81-1.23-2.25-1.34-3.41-1.93c-0.67-0.34-1.43-0.75-1.15-1.61c0.31-0.95,1.17-0.62,1.88-0.44
		c1.17,0.3,2.13,1.24,3.44,1.09c8.14,4.27,17.06,3.55,25.78,4c7.68,0.4,15.37,0.56,23.05,0.97c2.92,0.16,5.64-0.71,8.44-1.15
		c1.03-0.16,1.97-0.51,2.46,0.79c0.57,1.5-0.5,1.93-1.57,2.36c-3.16,1.29-6.65,1.1-9.82,1.08c-6.83-0.05-13.62,0.6-20.43,0.43
		c-5.78-0.14-11.6-0.11-17.17-2.06c-0.96-0.69-2-0.57-3.06-0.33C311.89,411.28,309.69,408.58,306.77,407.79z"/>
	<path class="st0" d="M229.53,372.5c0.31-0.68-0.77-2.57,1.1-3c2.12-0.49,2.19,1.53,2.76,2.8c2,4.42,3.22,9.1,4.58,13.75
		c1.8,6.16,4.13,12.16,6.3,18.21c0.59,1.65,1.04,3.29-0.89,4.17c-2.14,0.98-3.31-0.52-3.9-2.28c-1.29-3.87-2.45-7.79-3.58-11.72
		c-1.48-5.14-3.22-10.17-5.56-14.98C229.34,377.36,228.9,375.26,229.53,372.5z"/>
	<path class="st0" d="M361.56,346.1c1.46,0.31,3.13,0.06,3.32,1.61c0.21,1.71-1.53,1.8-2.64,1.9c-4.73,0.42-9.55,0.09-14.01,2.25
		c-0.85,0.41-1.79,0.03-2.24-0.83c-0.63-1.19,0.63-1.47,1.22-1.9C351.63,345.96,356.92,346.97,361.56,346.1z"/>
	<path class="st0" d="M324.7,423.46c-0.61-0.32-1.58-0.14-1.74-1.09c-0.17-0.98,0.56-1.32,1.32-1.39c2.67-0.26,4.86-2.16,7.59-2.2
		c2.98,0.56,6.44-1.74,8.98,1.49c-0.6,0.67-1.2,1.34-1.8,2.01C334.26,422.6,329.4,422.1,324.7,423.46z"/>
	<path class="st0" d="M377.54,342.18c0.05-2.29,0.08-4.01,0.12-5.74c0.01-0.65,0.18-1.32,0.88-1.43c0.7-0.11,1.1,0.4,1.19,1.1
		c0.75,5.96,0.73,11.81-2.41,17.23c-0.29,0.5-0.7,1.23-1.41,0.76c-0.73-0.49-0.48-1.35-0.23-2.02
		C376.92,348.7,377.79,345.26,377.54,342.18z"/>
	<path class="st0" d="M243.43,377.09c0.15-0.52,0.16-0.97,0.38-1.21c0.78-0.84-0.15-2.98,1.67-2.77c1.3,0.15,0.93,1.82,1.13,2.86
		c0.58,3.02,1.06,6.06,1.6,9.09c0.17,0.97,0.63,2.25-0.55,2.58c-0.96,0.27-1.74-0.86-2.13-1.75
		C244.28,383.04,244,379.96,243.43,377.09z"/>
	<path class="st0" d="M303.84,346.1c5.73-2.38,13.65-0.96,16.36,2.93c-2.25,0.9-4.34-0.64-6.54-0.44c-2.08-0.84-4.03,0.37-6.06,0.4
		C306.04,348.43,304.72,347.54,303.84,346.1z"/>
	<path class="st0" d="M421.24,394.28c2.27,3.73,0.12,6.76-1.55,9.86c-2.8-0.23-2.34-2.34-2.22-4.09
		C417.66,397.49,418.01,394.92,421.24,394.28z"/>
	<path class="st1" d="M258.88,384.38c0.08,2.05,0.38,4.14-0.99,5.95C257.2,388.18,256.59,386.03,258.88,384.38z"/>
	<path class="st1" d="M263.28,379.56c-0.92-0.35-1.66,0.08-2.41,0.53c-0.86-1.24,0.09-1.71,0.97-1.92
		C262.81,377.93,263.36,378.51,263.28,379.56z"/>
	<path class="st1" d="M315.22,411c1.06-0.25,2.1-0.36,3.06,0.33C317.09,412.83,316.06,412.77,315.22,411z"/>
	<path class="st1" d="M258.03,392.54c0.41,0.58,0.34,1.12-0.15,1.61C256.57,393.48,256.59,392.94,258.03,392.54z"/>
</g>
</svg>
